<?xml version="1.0" encoding="UTF-8" standalone="no"?>
<!-- Created with Inkscape (http://www.inkscape.org/) -->

<svg
   version="1.1"
   id="svg2"
   width="2305.72"
   height="345.94666"
   viewBox="0 0 2305.72 345.94666"
   sodipodi:docname="fasthouse-seeklogo.com.eps"
   xmlns:inkscape="http://www.inkscape.org/namespaces/inkscape"
   xmlns:sodipodi="http://sodipodi.sourceforge.net/DTD/sodipodi-0.dtd"
   xmlns="http://www.w3.org/2000/svg"
   xmlns:svg="http://www.w3.org/2000/svg">
  <defs
     id="defs6" />
  <sodipodi:namedview
     id="namedview4"
     pagecolor="#ffffff"
     bordercolor="#000000"
     borderopacity="0.25"
     inkscape:showpageshadow="2"
     inkscape:pageopacity="0.0"
     inkscape:pagecheckerboard="0"
     inkscape:deskcolor="#d1d1d1" />
  <g
     id="g8"
     inkscape:groupmode="layer"
     inkscape:label="ink_ext_XXXXXX"
     transform="matrix(1.3333333,0,0,-1.3333333,0,345.94667)">
    <g
       id="g10"
       transform="scale(0.1)">
      <path
         d="m 3016.88,1523.24 c -108.03,-103.87 -213.76,-205.38 -319.33,-307.07 -43.61,-42 -51.46,-77.76 -15.55,-124.54 40.35,-52.57 88.24,-99.368 133.73,-149.65 70.11,202.59 135.03,390.18 201.15,581.26 z m 220.3,-809.599 c 91.33,-32.082 178.48,-63.602 266.27,-93.243 68.98,-23.277 137.68,-48.757 208.36,-65.296 169.78,-39.75 341.25,-69.543 517.01,-59.532 4.98,0.289 10.55,-0.55 14.83,1.379 18.89,8.563 37.4,17.942 56.06,27.031 -11.6,17.399 -19.37,40.508 -35.42,51.25 -102.59,68.79 -208.72,132.36 -310.32,202.52 -98.27,67.871 -198.96,134.48 -286.95,214.461 -130.44,118.589 -124.77,282.959 0.28,427.579 114.66,132.58 244.37,249.01 386.81,349.91 74.1,52.49 159.69,88.46 236.82,137.09 131.67,83.01 277.85,133.05 422.57,183.5 143.73,50.1 293.65,74.17 444.47,18.95 34.34,-12.56 69.94,-21.72 104.28,-34.3 128.26,-46.95 233.84,-129.17 332.23,-220.62 37.43,-34.78 41.29,-128.37 12.05,-171.43 -69.65,-102.62 -131.57,-212.5 -213.72,-304.11 -92.71,-103.39 -204.73,-189.36 -307.15,-284.21 -37.42,-34.66 -89.17,-58.42 -95.17,-120.242 -0.63,-6.43 -38.08,-19.508 -48.18,-13.18 -93.37,58.652 -173.52,133.142 -233.14,226.002 -34.49,53.71 -9.2,143.76 41.13,196.64 30.45,31.98 54.25,70.19 82.41,104.46 35.53,43.19 74.1,83.93 108.36,128.06 38.52,49.59 74.07,101.51 109.97,153.08 5.88,8.46 6.91,20.31 1.88,43.13 -55.54,-22.84 -112.57,-42.66 -166.35,-69.09 -196.04,-96.38 -381.9,-208.96 -538.29,-363.62 -37.28,-36.87 -69.03,-81.08 -95.96,-126.29 -38.08,-63.95 -30.72,-119.91 30.99,-162.62 112.93,-78.19 232.28,-147.06 348.03,-221.252 85.35,-54.707 167.83,-114.668 213.66,-208.468 43.55,-89.129 13.81,-164.731 -82.66,-245.11 -274.32,-228.511 -590.46,-290.468 -935.68,-237 -238.21,36.899 -465.89,109.59 -693.58,210.328 -6.62,-47.359 -18.3,-92.429 -16.8,-137.046 0.72,-21.364 25.93,-42.274 41.01,-62.672 12.32,-16.629 26.08,-32.219 33.42,-55.668 -171.23,23.687 -335.44,59.418 -467.74,174.929 -20.47,17.879 -32.46,57.649 -30.74,86.239 3.65,60.3 17.39,120.23 30.16,179.629 6.4,29.75 1.28,47.062 -25.76,65.261 -84.92,57.129 -161.73,124.711 -200.4,222.321 -17.67,44.589 -20.53,95.058 -30.8,146.269 -237.17,-245.769 -478.95,-496.082 -720.26,-746.82 -17.24,-17.899 -31.48,-38.738 -46.61,-58.61 -63.1,-82.82 -64.42,-108.0816 -1.98,-200.49172 -25.26,0 -46.96,-6.82812 -58.88,1.07031 C 1514.8,85.2109 1405.24,182.148 1315.94,299.859 c -20.13,26.551 -22.63,58.582 -10.16,95.551 33.65,99.77 116.65,159.391 180.55,234.051 63.3,73.957 131.33,144.098 200.16,213.019 103.36,103.489 209.25,204.43 314.03,306.5 56.03,54.59 111.09,110.19 168.14,163.68 117.24,109.92 234.24,220.17 353.71,327.65 144.45,129.94 293.13,255.2 435.82,386.99 31.94,29.48 74.74,64.25 58.37,123.22 -1.86,6.65 18.61,27.85 28.78,27.89 27.71,0.13 56.87,-3.49 82.95,-12.71 104.63,-37.03 210.73,-71.42 311.5,-117.29 70.06,-31.87 135.79,-76.42 196.95,-123.71 45.94,-35.52 37.09,-107.7 5.26,-180.45 -96.93,-221.52 -190.92,-444.37 -282.61,-668.12 -37.72,-92.06 -66.97,-187.61 -99.36,-281.81 -8.51,-24.781 -14.37,-50.449 -22.85,-80.679"
         style="fill:#231f20;fill-opacity:1;fill-rule:evenodd;stroke:none"
         id="path12" />
      <path
         d="m 7096.18,95.3516 c -42.95,14.8784 -85.8,22.8864 -121.4,43.4494 -82.05,47.347 -161.07,100.058 -240.39,152.019 -68.56,44.918 -101.36,121.192 -45.54,204.039 113.95,169.153 212.4,348.75 326.42,517.851 106.48,157.89 223.74,308.61 338.4,460.87 88.68,117.77 179.66,233.87 271.47,349.24 98.09,123.25 199.01,244.26 297.37,367.3 40.74,50.97 76.32,106.08 117.55,156.6 29.79,36.53 64.53,69.12 97.95,102.58 39.21,39.25 79.36,77.58 119.13,116.27 32.95,32.06 72.22,38.98 109.16,13.7 90.37,-61.79 179.91,-125.09 266.25,-192.32 38.22,-29.77 40.21,-101.69 9.29,-137.49 -158.19,-183.09 -320,-363.12 -475.4,-548.52 -162.19,-193.49 -318.53,-391.9 -477.32,-588.23 -1.93,-2.4 -2.39,-5.99 -3.6,-9.17 159.26,15.03 318.29,30.44 477.41,44.87 45.54,4.13 83.04,11.96 113.39,56.27 186.26,271.9 401.79,520.6 614.53,771.73 41.55,49.06 87.98,90.97 131.3,136.99 61.75,65.6 125.68,57.86 198.15,11.56 79.19,-50.61 148.98,-116.06 222.24,-175.8 35.67,-29.11 38,-71.46 -5.19,-127.05 -53.73,-69.18 -115.97,-131.68 -173.39,-198.05 -102.05,-117.95 -204.31,-235.72 -304.43,-355.29 -95.81,-114.44 -192.79,-228.23 -282.4,-347.45 -119.44,-158.871 -232.69,-322.41 -347.67,-484.609 -31.61,-44.602 -61.91,-90.402 -89.16,-137.742 -28.26,-49.117 -57.49,-100.18 -9.32,-155.508 4.5,-5.18 0.6,-17.68 0.6,-45.2227 -77.72,41.4607 -146.61,75.2497 -212.49,114.1137 -81.49,48.078 -162.21,98.558 -212.04,183.578 -6.96,11.879 -17.38,29.211 -13.43,38.711 16.95,40.757 36.99,80.5 59.02,118.82 46.7,81.219 95.34,161.32 147.36,248.91 -110.72,-16.152 -215.44,-30.312 -319.77,-46.961 -93.57,-14.922 -186.82,-31.93 -279.91,-49.672 -14.92,-2.84 -33.96,-10.59 -41.36,-22.25 -90.74,-142.968 -179.78,-287.008 -268.98,-430.957 -28.62,-46.203 -39.21,-91.871 6.94,-134.711 2.18,-2.011 -0.11,-8.84 -0.74,-22.4684"
         style="fill:#231f20;fill-opacity:1;fill-rule:evenodd;stroke:none"
         id="path14" />
      <path
         d="m 12331.3,1850.66 c -26.3,-47.06 -43.9,-96.53 -76,-133.39 -194.8,-223.45 -377.9,-455.74 -530.7,-709.75 -78.2,-130 -143.2,-268.25 -208.4,-405.508 -17.4,-36.75 -15.2,-83.434 -19.2,-125.801 -3.9,-40.609 23.8,-51.91 54.6,-40.742 61.3,22.281 126.6,41.609 179.3,78 166.1,114.761 314,251.66 447,403.652 108.1,123.529 216.4,247.189 318.3,375.789 110.3,139.32 214.6,283.59 318.8,427.65 23.7,32.8 33.7,75.23 55.1,110.12 11.4,18.6 36.4,28.37 50.3,46.04 20.4,25.95 36.6,55.26 54.2,83.39 37.4,59.84 78.4,117.87 110.1,180.6 15.8,31.24 35,41.9 65,42.2 16.5,0.16 35.9,1.96 49,-5.65 76.9,-44.93 156.9,-86.46 226.9,-140.72 67.5,-52.33 68.7,-127.4 36.1,-204.08 -172.3,-404.69 -402.5,-772.91 -704.6,-1092.8 -136.2,-144.199 -279.2,-284.031 -433.1,-408.582 -88.1,-71.269 -200.3,-118.738 -308.5,-157.828 -240.4,-86.8203 -474.4,-32.289 -701.4,60.238 -99.7,40.614 -201.4,82.16 -270.3,171.711 -48.5,62.973 -71.7,133.692 -66.8,215.481 5.9,100.359 32.7,193.242 70.9,285.75 66,159.49 147.8,309.92 243.3,452.9 87,130.29 172.8,262.06 269.7,384.83 80.6,102.13 175.8,192.89 266.1,287.13 32.9,34.25 69,65.85 106.3,95.34 57.6,45.59 96.5,49.11 153.2,5.55 64.4,-49.54 127.5,-102.24 183.6,-160.82 27.8,-29.02 38.6,-74.31 61.2,-120.7"
         style="fill:#231f20;fill-opacity:1;fill-rule:evenodd;stroke:none"
         id="path16" />
      <path
         d="m 9468.73,537.82 c 0,-20.332 -0.18,-28.648 0.03,-36.968 1.67,-65.274 28.2,-85.653 88.74,-61.024 48.41,19.703 96.7,42.75 139.54,72.281 58.36,40.219 109.47,90.84 167.25,132.02 138.11,98.41 244.01,228.691 350.81,356.721 153,183.41 275.7,386.79 347.7,616.06 20.2,64.53 25.3,135.77 25.6,203.98 0.3,51.93 -29.2,72.08 -80.2,59.42 -52.4,-13.03 -105.4,-32.13 -152,-59.13 -182.8,-105.95 -323.4,-260.85 -448.7,-425.67 C 9796.58,1249.65 9701.27,1091.05 9608.6,932.5 9535.68,807.75 9480.45,673.469 9468.73,537.82 Z m 207.4,-415.808 c -130.85,-6.821 -252.54,48.519 -372.42,108.867 -87.94,44.269 -176.06,90.652 -234.55,173.101 -26.87,37.899 -48.04,82.668 -60.48,127.461 -41.86,150.661 -5.02,295.481 44.2,437.559 89.96,259.76 230.48,490.1 410.89,696.7 113.3,129.75 244.22,239.14 389.1,331.56 62.2,39.67 124.43,82.27 192.33,109.1 62.2,24.55 131.6,32.78 198.7,42.3 52.1,7.41 105.6,8.55 158.4,7.5 132,-2.59 251.5,-51.2 370.5,-103.11 97,-42.33 182.1,-102.2 261.6,-169.9 19,-16.2 23.5,-48.74 36.9,-72.49 59.3,-105.32 53.2,-216.78 30.1,-329.03 -35.1,-170.9 -119.2,-319.6 -216.7,-461.28 C 10665.2,701.219 10394,435.422 10062.5,233.43 9946.94,163.02 9821.64,121.469 9676.13,122.012"
         style="fill:#231f20;fill-opacity:1;fill-rule:evenodd;stroke:none"
         id="path18" />
      <path
         d="m 14765,1847.58 c -82.3,-41.07 -167.3,-77.55 -246.3,-124.15 -181.4,-106.91 -352.1,-228.43 -489.4,-390.99 -3.3,-3.82 -6.8,-7.35 -9.8,-11.37 -97,-132.83 -85.2,-181.82 43.9,-261.1 97.3,-59.76 201.3,-108.482 301.3,-164.04 102.5,-56.93 197.7,-123.25 266.4,-221.219 31.7,-45.18 9.4,-92.531 -5.6,-132.141 -17.6,-46.55 -48.1,-92.8 -84.5,-126.89 -139.4,-130.551 -304,-213.36 -491.6,-257.18 -191.7,-44.82 -377.7,-16.789 -564.3,21.449 -130.1,26.641 -248.8,82.082 -364.5,146.352 -135.1,75.078 -185.8,222.738 -154,378.5 11.9,57.937 12.6,118.699 52,167.187 8.6,10.512 24.2,15.274 36.5,22.672 5.1,-13.512 16.3,-28.019 14.2,-40.351 -17.4,-105.821 20.1,-187.547 118.7,-233.879 186.2,-87.442 381.6,-145.508 587.1,-162.149 79.1,-6.402 159.2,-0.59 238.8,0.27 11.5,0.121 24.3,1.129 34.1,6.25 23.7,12.301 46,27.289 68.9,41.199 -14.9,22.711 -24.6,53.91 -45.6,66.719 -117.5,71.871 -239.1,136.902 -356.5,208.961 -99.8,61.32 -203.5,120.082 -291.7,195.968 -124.9,107.512 -111.8,245.452 -30,378.912 74.6,121.72 181.6,211.79 280.4,310.64 77.4,77.41 166.8,137.47 259.2,193.71 104.6,63.62 206.9,133.11 317.5,184.1 148.2,68.29 301.3,141.02 469.5,124.31 96.3,-9.57 191.9,-45.2 282.8,-81.65 71.5,-28.67 138.2,-72.51 201.9,-116.87 102.9,-71.53 122.4,-160.28 67.5,-274.2 -98.7,-204.88 -242,-376.18 -403.2,-533.88 -23.8,-23.25 -48.1,-46.08 -69.8,-71.17 -15.1,-17.44 -29.5,-36.99 -38.3,-58.03 -29.7,-70.711 -31.7,-74.399 -88,-23.08 -76.5,69.79 -148.7,144.48 -220.6,219.06 -10.3,10.67 -17.1,35.97 -11.7,48.52 18.8,43.54 42.4,85.24 66.6,126.15 32.3,54.36 65.8,108.03 100.9,160.55 14.6,21.72 37.6,37.81 51.7,59.73 42.7,66.21 82.8,134.05 123.9,201.25 -6.1,7.29 -12.3,14.59 -18.4,21.88"
         style="fill:#231f20;fill-opacity:1;fill-rule:evenodd;stroke:none"
         id="path20" />
      <path
         d="m 15858.8,1270.35 c 81.7,0 164.5,-4.09 246.8,1 110.6,6.84 203.6,-21.18 273.5,-111.23 18.4,-23.64 41.9,-43.64 57.8,-68.66 14.3,-22.52 34.9,-55.01 27.7,-73.2 -7,-17.78 -44.8,-29.08 -70.6,-32.74 -112,-15.918 -224.9,-26.051 -336.9,-41.961 -154.6,-22.008 -308.9,-47.098 -463.1,-71.661 -12.4,-1.976 -28.5,-6.808 -34.9,-15.91 -64.7,-92.097 -127.7,-185.367 -196.7,-286.519 64.2,7.261 117.8,13.09 171.4,19.461 42.6,5.07 85.1,14.179 127.8,15.539 99.6,3.191 199.5,0.851 299.1,4.429 85.7,3.063 163,-17.968 225,-76.718 68.7,-65.078 132.9,-134.95 197.9,-203.91 7.6,-8.051 13.1,-26.571 8.9,-34.649 -3.9,-7.57 -25.2,-14.191 -33.5,-10.18 -81.6,39.309 -165.8,14.168 -246.1,4.598 -255.8,-30.488 -510.5,-69.551 -765.4,-107.117 -87.1,-12.863 -173.3,-32.793 -260.5,-45.871 -24.8,-3.723 -55.4,-1.871 -76.6,9.801 -81.2,44.886 -162.1,91.308 -238.4,143.937 -58.3,40.141 -66.9,75.602 -36.1,138.371 52.5,106.969 109.2,212.09 167.8,315.852 47.8,84.449 98.7,167.34 152.4,248.187 131.3,197.961 264.5,394.701 398.1,591.141 44.4,65.23 93,127.62 137.9,192.54 6.2,9.05 7,27.5 2.1,37.64 -22.2,46.03 -48.2,90.22 -71,136 -8.7,17.48 -14.7,37.07 -17.9,56.36 -5,30.61 6.9,48.2 41.4,43.42 137.3,-19.01 271.1,6.21 404.7,32.28 11.4,2.22 22.7,6.06 34.2,6.88 216.5,15.49 432.9,31.95 649.5,45.28 100.8,6.2 203.2,17.23 302.6,6.28 134.8,-14.86 249.1,-77.44 319,-202.23 5.7,-10.17 12,-20 17.7,-30.13 34.8,-61.37 21.5,-88.68 -48.2,-95.9 -248.1,-25.72 -496.4,-50.12 -744.5,-76.58 -82.6,-8.81 -164.5,-27.22 -247.3,-32 -58.1,-3.36 -77.5,-46.5 -104.9,-80.77 -90.2,-112.63 -177.5,-227.6 -265.8,-341.81 -3.7,-4.77 -5.7,-10.81 -4.9,-9.25"
         style="fill:#231f20;fill-opacity:1;fill-rule:evenodd;stroke:none"
         id="path22" />
      <path
         d="m 1244.65,2166.61 c -27.35,52.26 -54.2,101.27 -78.77,151.4 -15.01,30.63 -28.38,62.39 -38.53,94.89 -3.46,11.11 1.76,28.94 9.61,37.94 4.18,4.79 23.82,-0.02 34.17,-5.15 60.2,-29.85 117.77,-28.45 184.17,-11.16 75.82,19.73 157.59,16.54 236.75,23.53 145.56,12.85 290.95,28.37 436.72,37.9 91.72,6 184.01,3.67 276.05,4.08 82.81,0.35 165.73,1.67 248.42,-1.74 75.62,-3.12 130.29,-52.29 183.26,-98.64 33.3,-29.13 58.77,-67.12 88.36,-100.6 21.96,-24.84 33.29,-46.74 19.94,-84.54 -13.57,-38.45 -39.29,-34.85 -65.71,-37.49 -303.85,-30.29 -607.77,-59.78 -911.55,-90.76 -16.19,-1.65 -35.81,-10.83 -46.08,-23.02 -122.88,-145.93 -244.29,-293.1 -367.03,-441.09 104.38,0 204.85,-1.55 305.24,0.44 100.21,1.99 176.49,-38.71 232.59,-120.27 18.87,-27.43 39.61,-53.75 56.38,-82.39 26.67,-45.58 15.36,-66.48 -37.21,-72.66 -163.32,-19.19 -326.83,-36.86 -489.97,-57.49 -116.9,-14.79 -233.42,-32.76 -349.84,-51.04 -14.4,-2.27 -31.56,-12 -40,-23.67 C 943.57,955.531 755.996,695.609 569.766,434.738 523.574,370.039 480.504,302.91 439.32,234.891 386.332,147.34 393.906,119.711 473.191,56.25 485.914,46.0703 489.258,24.1914 496.934,7.73047 479.492,6.89844 457.355,-1.28125 445.332,6.39844 316.582,88.5586 187.004,169.82 62.7891,258.539 c -70.26566,50.172 -80.0079,108.883 -37,184.102 72.6211,127.007 147.1949,253.211 227.6679,375.308 120.106,182.271 243.629,362.411 370.297,540.181 96.871,135.95 200.047,267.46 301.898,399.79 105.568,137.16 212.908,272.94 318.998,408.69"
         style="fill:#231f20;fill-opacity:1;fill-rule:evenodd;stroke:none"
         id="path24" />
      <path
         d="m 6184.66,1747.71 c -206.28,-15.55 -376.74,51.22 -531.08,163.38 -54.05,39.28 -101.24,88.25 -149.79,134.66 -10.17,9.72 -12.52,27.63 -18.47,41.77 17.92,3.2 36.47,11.12 53.64,8.81 83.26,-11.22 166.51,-37.47 249.09,-35.07 102.97,2.99 204.89,32.45 308.01,43.64 90.77,9.84 182.52,11.05 273.89,14.69 166.2,6.64 333.17,4.75 498.46,20.5 148.34,14.13 288.21,-22.16 427.31,-54.98 67.35,-15.9 124.31,-76.27 185.68,-116.97 22.02,-14.6 46.3,-27.65 63.77,-46.7 15.4,-16.81 33.75,-43.05 30.35,-61.3 -3.04,-16.3 -33.14,-37.4 -52.87,-39.2 -183.65,-16.74 -367.58,-30.71 -551.59,-43.23 -45.95,-3.12 -81.3,-12.85 -115.57,-50.42 -190.29,-208.64 -390.75,-408.28 -576.06,-621.16 -230.05,-264.259 -443.96,-542.028 -633.85,-837.341 -24.33,-37.84 -43.03,-75.199 -11.16,-118.91 5.83,-7.981 3.45,-21.957 6.02,-42.59 -34.89,6.359 -70.57,3.152 -93.37,18.762 -95.69,65.48 -190.08,133.461 -279.78,206.859 -52.12,42.66 -56.25,112.949 -19.31,171.36 75.36,119.14 145.87,242.152 230.55,354.39 187.96,249.15 383.04,492.94 576.16,738.17 38.61,49.03 81.41,94.75 129.97,150.88"
         style="fill:#231f20;fill-opacity:1;fill-rule:evenodd;stroke:none"
         id="path26" />
    </g>
  </g>
</svg>
